<svg width="74" height="69" viewBox="0 0 74 69" fill="none" xmlns="http://www.w3.org/2000/svg">
<path d="M73.6319 22.1762H68.3519C68.3519 22.2402 68.3199 22.3042 68.2559 22.3682C68.2559 22.4322 68.2559 22.5282 68.2559 22.6562H68.8319C68.8319 22.7202 68.7999 22.7842 68.7359 22.8482C68.7359 22.9122 68.7359 23.0082 68.7359 23.1362H67.1999L66.9119 24.0962H63.2639C63.0719 24.8002 62.7839 25.4402 62.3999 26.0162H64.5119C64.4479 26.2722 64.3199 26.5282 64.1279 26.7842C63.9999 26.9762 63.8719 27.2002 63.7439 27.4562H54.9119C54.6559 27.7762 54.4319 28.0962 54.2399 28.4162C54.0479 28.7362 53.8239 29.0562 53.5679 29.3762H61.4399L60.2879 30.8162H55.3919L54.5279 31.7762H49.7279C49.5359 32.0322 49.3119 32.2882 49.0559 32.5442C48.8639 32.7362 48.6399 32.9602 48.3839 33.2162H59.8079L58.9439 34.1762H51.1679C51.0399 34.3042 50.8799 34.4642 50.6879 34.6562C50.5599 34.8482 50.3999 35.0082 50.2079 35.1362H54.5279C54.2719 35.3922 54.0159 35.6482 53.7599 35.9042C53.5679 36.0962 53.3759 36.3202 53.1839 36.5762H52.0319L50.5919 38.0162H53.1839L52.3199 38.9762H51.5519C51.4879 39.1042 51.3919 39.2322 51.2639 39.3602C51.1359 39.4882 51.0079 39.6162 50.8799 39.7442C50.7519 39.9362 50.5599 40.1602 50.3039 40.4162H52.1279C52.0639 40.4802 51.9999 40.5442 51.9359 40.6082C51.8719 40.6722 51.8079 40.7682 51.7439 40.8962H54.9119C54.9119 40.9602 54.8799 40.9922 54.8159 40.9922C54.8159 40.9922 54.8159 41.0242 54.8159 41.0882C54.6879 41.3442 54.5279 41.5682 54.3359 41.7602C54.2079 41.9522 54.0799 42.1442 53.9519 42.3362H44.7359C44.3519 42.8482 43.9679 43.2322 43.5839 43.4882C43.2639 43.7442 42.7839 43.8722 42.1439 43.8722H21.5999C21.1519 43.8722 20.7359 43.7122 20.3519 43.3922C20.0319 43.0722 19.8399 42.7202 19.7759 42.3362H28.9919V42.1442C28.9919 41.8242 29.0239 41.5682 29.0879 41.3762L29.2799 40.8962H26.1119C26.1119 40.7682 26.1119 40.6722 26.1119 40.6082C26.1759 40.5442 26.2079 40.4802 26.2079 40.4162H24.4799L25.0559 38.9762H25.8239L26.3999 38.0162H23.8079L24.7679 36.5762H25.9199L26.9759 35.1362H22.6559L23.5199 34.1762H31.1999L32.0639 33.2162H20.6399L22.0799 31.7762H26.8799L27.8399 30.8162H32.8319L34.2719 29.3762H26.4959L28.4159 27.4562H37.3439L38.7839 26.0162H36.5759C36.8959 25.6962 37.1839 25.3762 37.4399 25.0562C37.6959 24.6722 37.9199 24.3522 38.1119 24.0962H41.7599C41.9519 23.7762 42.1119 23.4562 42.2399 23.1362H43.7759C43.7759 23.0722 43.8399 22.9122 43.9679 22.6562H43.2959C43.3599 22.5282 43.3919 22.3682 43.3919 22.1762H48.6719V21.2162H39.7439C39.7439 21.0882 39.7119 20.9922 39.6479 20.9282C39.6479 20.8642 39.6479 20.8002 39.6479 20.7362H45.7919L45.5039 20.2562H39.6479C39.4559 20.4482 39.3279 20.6082 39.2639 20.7362H34.5599L34.2719 21.2162H27.2639L26.6879 22.1762H27.3599V22.2722C27.2959 22.3362 27.2319 22.4002 27.1679 22.4642C27.1679 22.5282 27.1359 22.5922 27.0719 22.6562H31.6799L31.3919 23.1362H28.8959C28.7039 23.4562 28.4159 23.7762 28.0319 24.0962H28.9919C28.4159 24.4802 27.7119 24.6722 26.8799 24.6722H9.02393C8.44793 24.6722 7.96793 24.4802 7.58393 24.0962H6.62393C6.36793 23.8402 6.14393 23.5202 5.95193 23.1362H8.44793C8.44793 23.0082 8.41593 22.9122 8.35193 22.8482C8.35193 22.7842 8.35193 22.7202 8.35193 22.6562H3.74393C3.67993 22.5282 3.64793 22.3682 3.64793 22.1762H2.97593V21.2162H9.98393C10.0479 21.0882 10.0799 20.9282 10.0799 20.7362H14.6879C14.6879 20.5442 14.7199 20.3842 14.7839 20.2562H-7.04527e-05V19.7762H8.63993C8.76793 19.3922 8.83193 19.0722 8.83193 18.8162H5.08793C5.21593 18.5602 5.27993 18.3362 5.27993 18.1442C5.34393 17.8882 5.40793 17.6322 5.47193 17.3762H4.60793L4.79993 16.8962H7.96793L8.54393 15.4562H7.87193C7.99993 15.2002 8.09593 14.9762 8.15993 14.7842C8.28793 14.5282 8.41593 14.2722 8.54393 14.0162H10.3679C10.5599 13.6962 10.7199 13.3762 10.8479 13.0562C11.0399 12.7362 11.2639 12.4162 11.5199 12.0962H12.2879C12.3519 11.9682 12.4159 11.8722 12.4799 11.8082C12.5439 11.7442 12.6079 11.6802 12.6719 11.6162H9.88793C10.1439 11.2962 10.3999 10.9762 10.6559 10.6562C10.9119 10.3362 11.1679 10.0162 11.4239 9.69615H11.9039L13.3439 8.25616H12.9599C13.0879 8.12815 13.2479 7.96815 13.4399 7.77616C13.6319 7.58415 13.8239 7.42415 14.0159 7.29616H14.9759L15.5519 6.81615H9.40793L9.98393 6.33615H10.3679L11.8079 5.37615H14.7839C15.1679 5.12015 15.5519 4.89615 15.9359 4.70415C16.3839 4.44815 16.8319 4.19215 17.2799 3.93615H19.0079C19.5839 3.61615 20.2879 3.29615 21.1199 2.97615H23.6159C23.8079 2.84815 23.9999 2.75215 24.1919 2.68815C24.4479 2.62415 24.6719 2.56015 24.8639 2.49615H21.5999C21.7919 2.36815 21.9839 2.27215 22.1759 2.20815C22.4319 2.14415 22.6879 2.08015 22.9439 2.01616H32.0639C32.6399 1.82415 33.2159 1.66415 33.7919 1.53616C34.3679 1.34415 34.9759 1.18415 35.6159 1.05615H25.5359C25.9199 0.928152 26.3039 0.832153 26.6879 0.768154C27.1359 0.704155 27.5839 0.640154 28.0319 0.576151H34.0799C36.3839 0.192152 38.9439 0.000152588 41.7599 0.000152588C44.7039 0.000152588 47.3279 0.192152 49.6319 0.576151H43.6799C44.1279 0.640154 44.5439 0.704155 44.9279 0.768154C45.3759 0.832153 45.7919 0.928152 46.1759 1.05615H56.2559C57.5999 1.37615 58.7199 1.69616 59.6159 2.01616H50.4959C50.6879 2.08015 50.8799 2.14415 51.0719 2.20815C51.3279 2.27215 51.5519 2.36815 51.7439 2.49615H55.1039L56.1599 2.97615H53.6639C54.3679 3.29615 54.9759 3.61615 55.4879 3.93615H53.6639C54.1119 4.19215 54.4959 4.44815 54.8159 4.70415C55.1999 4.89615 55.5519 5.12015 55.8719 5.37615H52.8959C53.1519 5.50415 53.3759 5.66415 53.5679 5.85615C53.7599 6.04815 53.9199 6.20815 54.0479 6.33615H53.7599L54.2399 6.81615H60.3839C60.5119 6.88015 60.6079 6.94415 60.6719 7.00815C60.7359 7.07215 60.7999 7.16815 60.8639 7.29616H59.9039L60.7679 8.25616H61.1519C61.3439 8.51216 61.5359 8.76815 61.7279 9.02415C61.9199 9.21615 62.0799 9.44015 62.2079 9.69615H61.7279C61.9839 10.0162 62.2079 10.3362 62.3999 10.6562C62.5919 10.9762 62.7519 11.2962 62.8799 11.6162H65.5679C65.6959 11.8722 65.7599 12.0322 65.7599 12.0962H64.9919C65.2479 12.6722 65.4719 13.3122 65.6639 14.0162H63.8399C63.9039 14.2722 63.9679 14.5282 64.0319 14.7842C64.0959 14.9762 64.1279 15.2002 64.1279 15.4562H64.8959C64.9599 15.7122 64.9919 15.9682 64.9919 16.2242C64.9919 16.4162 65.0239 16.6402 65.0879 16.8962H61.8239C61.8879 17.0242 61.9199 17.1842 61.9199 17.3762H62.7839V18.8162H64.4159C64.4159 18.9442 64.4159 19.1042 64.4159 19.2962C64.4159 19.4882 64.3839 19.6482 64.3199 19.7762H65.1839C65.1839 19.8402 65.1519 19.9042 65.0879 19.9682C65.0879 20.0322 65.0879 20.1282 65.0879 20.2562H71.2319C71.1679 20.3842 71.1359 20.5442 71.1359 20.7362H64.9919C64.9919 20.9282 64.9599 21.0882 64.8959 21.2162H73.8239C73.8239 21.4722 73.7599 21.7922 73.6319 22.1762ZM34.0799 18.7202C33.8239 18.7202 33.5679 18.7202 33.3119 18.7202C33.1199 18.7202 32.9279 18.7522 32.7359 18.8162H34.9439C34.7519 18.7522 34.4639 18.7202 34.0799 18.7202ZM24.8639 20.2562H39.4559L39.1679 19.7762H38.3039C37.9839 19.3282 37.4399 19.0082 36.6719 18.8162H36.3839C35.2959 19.0082 34.4959 19.3282 33.9839 19.7762H25.3439L24.8639 20.2562ZM51.8399 47.7122C52.7999 47.7122 53.5679 48.1602 54.1439 49.0562H44.9279C45.1199 49.4402 45.2159 49.8562 45.2159 50.3042V50.4962H42.6239V51.4562H44.5439V53.3762H47.4239V54.3362H46.9439V54.8162H45.1199V56.7362H47.7119V58.1762H48.8639V60.0962H36.4799V62.0162H42.2399V63.4562H39.0719V63.9362H41.8559V64.4162H45.6959V65.3762H46.5599V65.5682C46.5599 66.1442 46.3359 66.7202 45.8879 67.2962H40.5119C40.2559 67.5522 40.0639 67.7122 39.9359 67.7762H39.2639C38.9439 68.0322 38.4959 68.1602 37.9199 68.1602H20.3519C19.7119 68.1602 19.2319 68.0322 18.9119 67.7762H19.5839C19.4559 67.7122 19.2639 67.5522 19.0079 67.2962H24.4799C24.0319 66.7202 23.8079 66.1442 23.8079 65.5682V65.3762H22.9439V64.4162H19.1039V63.9362H16.3199V63.4562H19.4879V62.0162H13.7279V60.0962H26.1119V58.1762H24.9599V56.7362H22.3679V54.8162H24.1919V54.3362H24.6719V53.3762H21.7919V51.4562H19.8719V50.4962H22.4639V50.3042C22.4639 49.8562 22.5599 49.4402 22.7519 49.0562H31.9679C32.5439 48.1602 33.3119 47.7122 34.2719 47.7122H51.8399Z" fill="#35C6DD"/>
</svg>
